# xmcd
#
# Track frame offsets: 
#        150
#        19473
#        43616
#        57909
#        73329
#        95500
#        113360
#        128168
#        135924
#        149690
#
# Disc length: 2222 seconds
#
# Revision: 0
# Processed by: cddbd v1.5.2PL0 Copyright (c) Steve Scherf et al.
# Submitted via: ExactAudioCopyFreeDBPlugin 1.0
#
DISCID=9008ac0a
DTITLE=Michael Murphey - Michael Murphey
DYEAR=1974
DGENRE=alt.country
TTITLE0=Nobody's Gonna Tell Me How To Play My Music
TTITLE1=Healing Springs
TTITLE2=Rye By-The-Sea
TTITLE3=You Can Only Say So Much
TTITLE4=Observer
TTITLE5=Holy Roller
TTITLE6=Good Ol' Natural Habits
TTITLE7=Fort Worth I Love You
TTITLE8=Ace In The Hole
TTITLE9=Southwestern Pilgrimage
EXTD=
EXTT0=
EXTT1=
EXTT2=
EXTT3=
EXTT4=
EXTT5=
EXTT6=
EXTT7=
EXTT8=
EXTT9=
PLAYORDER=
